G04 #@! TF.GenerationSoftware,KiCad,Pcbnew,(6.0.1)*
G04 #@! TF.CreationDate,2023-01-09T15:04:14+01:00*
G04 #@! TF.ProjectId,relow-solder-hot-plate,72656c6f-772d-4736-9f6c-6465722d686f,rev?*
G04 #@! TF.SameCoordinates,Original*
G04 #@! TF.FileFunction,Paste,Top*
G04 #@! TF.FilePolarity,Positive*
%FSLAX46Y46*%
G04 Gerber Fmt 4.6, Leading zero omitted, Abs format (unit mm)*
G04 Created by KiCad (PCBNEW (6.0.1)) date 2023-01-09 15:04:14*
%MOMM*%
%LPD*%
G01*
G04 APERTURE LIST*
G04 Aperture macros list*
%AMRoundRect*
0 Rectangle with rounded corners*
0 $1 Rounding radius*
0 $2 $3 $4 $5 $6 $7 $8 $9 X,Y pos of 4 corners*
0 Add a 4 corners polygon primitive as box body*
4,1,4,$2,$3,$4,$5,$6,$7,$8,$9,$2,$3,0*
0 Add four circle primitives for the rounded corners*
1,1,$1+$1,$2,$3*
1,1,$1+$1,$4,$5*
1,1,$1+$1,$6,$7*
1,1,$1+$1,$8,$9*
0 Add four rect primitives between the rounded corners*
20,1,$1+$1,$2,$3,$4,$5,0*
20,1,$1+$1,$4,$5,$6,$7,0*
20,1,$1+$1,$6,$7,$8,$9,0*
20,1,$1+$1,$8,$9,$2,$3,0*%
%AMFreePoly0*
4,1,6,0.600000,-0.600000,-0.600000,-0.600000,-0.600000,0.000000,0.000000,0.600000,0.600000,0.600000,0.600000,-0.600000,0.600000,-0.600000,$1*%
G04 Aperture macros list end*
%ADD10RoundRect,0.150000X-0.150000X0.825000X-0.150000X-0.825000X0.150000X-0.825000X0.150000X0.825000X0*%
%ADD11R,0.600000X1.450000*%
%ADD12R,0.300000X1.450000*%
%ADD13RoundRect,0.200000X0.275000X-0.200000X0.275000X0.200000X-0.275000X0.200000X-0.275000X-0.200000X0*%
%ADD14RoundRect,0.150000X-0.150000X0.587500X-0.150000X-0.587500X0.150000X-0.587500X0.150000X0.587500X0*%
%ADD15RoundRect,0.150000X0.512500X0.150000X-0.512500X0.150000X-0.512500X-0.150000X0.512500X-0.150000X0*%
%ADD16R,2.750000X3.050000*%
%ADD17R,1.200000X2.200000*%
%ADD18RoundRect,0.100000X0.637500X0.100000X-0.637500X0.100000X-0.637500X-0.100000X0.637500X-0.100000X0*%
%ADD19R,0.900000X1.200000*%
%ADD20RoundRect,0.200000X-0.275000X0.200000X-0.275000X-0.200000X0.275000X-0.200000X0.275000X0.200000X0*%
%ADD21RoundRect,0.225000X-0.250000X0.225000X-0.250000X-0.225000X0.250000X-0.225000X0.250000X0.225000X0*%
%ADD22R,0.450000X0.300000*%
%ADD23RoundRect,0.225000X0.250000X-0.225000X0.250000X0.225000X-0.250000X0.225000X-0.250000X-0.225000X0*%
%ADD24R,1.000000X0.800000*%
%ADD25RoundRect,0.200000X-0.200000X-0.275000X0.200000X-0.275000X0.200000X0.275000X-0.200000X0.275000X0*%
%ADD26RoundRect,0.225000X0.225000X0.250000X-0.225000X0.250000X-0.225000X-0.250000X0.225000X-0.250000X0*%
%ADD27R,0.400000X0.800000*%
%ADD28R,0.800000X0.400000*%
%ADD29R,1.200000X1.200000*%
%ADD30FreePoly0,270.000000*%
%ADD31R,0.800000X0.800000*%
%ADD32RoundRect,0.250000X-0.375000X-1.075000X0.375000X-1.075000X0.375000X1.075000X-0.375000X1.075000X0*%
%ADD33RoundRect,0.225000X-0.225000X-0.250000X0.225000X-0.250000X0.225000X0.250000X-0.225000X0.250000X0*%
%ADD34RoundRect,0.250000X2.475000X-0.712500X2.475000X0.712500X-2.475000X0.712500X-2.475000X-0.712500X0*%
%ADD35RoundRect,0.200000X0.200000X0.275000X-0.200000X0.275000X-0.200000X-0.275000X0.200000X-0.275000X0*%
G04 APERTURE END LIST*
D10*
X82005000Y-61725000D03*
X80735000Y-61725000D03*
X79465000Y-61725000D03*
X78195000Y-61725000D03*
X78195000Y-66675000D03*
X79465000Y-66675000D03*
X80735000Y-66675000D03*
X82005000Y-66675000D03*
D11*
X75259000Y-68307000D03*
X74459000Y-68307000D03*
D12*
X73259000Y-68307000D03*
X72259000Y-68307000D03*
X71759000Y-68307000D03*
X70759000Y-68307000D03*
D11*
X69559000Y-68307000D03*
X68759000Y-68307000D03*
X68759000Y-68307000D03*
X69559000Y-68307000D03*
D12*
X70259000Y-68307000D03*
X71259000Y-68307000D03*
X72759000Y-68307000D03*
X73759000Y-68307000D03*
D11*
X74459000Y-68307000D03*
X75259000Y-68307000D03*
D13*
X150800000Y-76425000D03*
X150800000Y-74775000D03*
D14*
X111550000Y-67662500D03*
X109650000Y-67662500D03*
X110600000Y-69537500D03*
D13*
X109600000Y-65825000D03*
X109600000Y-64175000D03*
D15*
X117137500Y-63950000D03*
X117137500Y-63000000D03*
X117137500Y-62050000D03*
X114862500Y-62050000D03*
X114862500Y-63000000D03*
X114862500Y-63950000D03*
D13*
X64200000Y-73825000D03*
X64200000Y-72175000D03*
D16*
X103475000Y-72775000D03*
X103475000Y-69425000D03*
X106525000Y-72775000D03*
X106525000Y-69425000D03*
D17*
X107280000Y-64800000D03*
X102720000Y-64800000D03*
D18*
X74862500Y-76275000D03*
X74862500Y-75625000D03*
X74862500Y-74975000D03*
X74862500Y-74325000D03*
X74862500Y-73675000D03*
X74862500Y-73025000D03*
X74862500Y-72375000D03*
X74862500Y-71725000D03*
X69137500Y-71725000D03*
X69137500Y-72375000D03*
X69137500Y-73025000D03*
X69137500Y-73675000D03*
X69137500Y-74325000D03*
X69137500Y-74975000D03*
X69137500Y-75625000D03*
X69137500Y-76275000D03*
D19*
X105450000Y-61800000D03*
X102150000Y-61800000D03*
D20*
X62600000Y-68775000D03*
X62600000Y-70425000D03*
D21*
X150800000Y-71625000D03*
X150800000Y-73175000D03*
D22*
X155145000Y-95700000D03*
X155145000Y-96200000D03*
X155135000Y-96700000D03*
X156465000Y-96700000D03*
X156465000Y-95700000D03*
D13*
X149200000Y-66625000D03*
X149200000Y-64975000D03*
D20*
X150768000Y-64975000D03*
X150768000Y-66625000D03*
X65800000Y-68775000D03*
X65800000Y-70425000D03*
D23*
X113000000Y-63575000D03*
X113000000Y-62025000D03*
X64200000Y-70375000D03*
X64200000Y-68825000D03*
D24*
X149950000Y-63050000D03*
X148450000Y-63050000D03*
X148450000Y-61950000D03*
X149950000Y-61950000D03*
D23*
X122400000Y-77575000D03*
X122400000Y-76025000D03*
X119800000Y-68975000D03*
X119800000Y-67425000D03*
D25*
X109775000Y-71600000D03*
X111425000Y-71600000D03*
D26*
X137375000Y-61200000D03*
X135825000Y-61200000D03*
X156575000Y-94000000D03*
X155025000Y-94000000D03*
D27*
X137550000Y-63200000D03*
X136700000Y-63200000D03*
X135850000Y-63200000D03*
X135000000Y-63200000D03*
X134150000Y-63200000D03*
X133300000Y-63200000D03*
X132450000Y-63200000D03*
X131600000Y-63200000D03*
X130750000Y-63200000D03*
X129900000Y-63200000D03*
X129050000Y-63200000D03*
X128200000Y-63200000D03*
X127350000Y-63200000D03*
X126500000Y-63200000D03*
X125650000Y-63200000D03*
D28*
X124600000Y-64250000D03*
X124600000Y-65100000D03*
X124600000Y-65950000D03*
X124600000Y-66800000D03*
X124600000Y-67650000D03*
X124600000Y-68500000D03*
X124600000Y-69350000D03*
X124600000Y-70200000D03*
X124600000Y-71050000D03*
X124600000Y-71900000D03*
X124600000Y-72750000D03*
X124600000Y-73600000D03*
X124600000Y-74450000D03*
X124600000Y-75300000D03*
X124600000Y-76150000D03*
D27*
X125650000Y-77200000D03*
X126500000Y-77200000D03*
X127350000Y-77200000D03*
X128200000Y-77200000D03*
X129050000Y-77200000D03*
X129900000Y-77200000D03*
X130750000Y-77200000D03*
X131600000Y-77200000D03*
X132450000Y-77200000D03*
X133300000Y-77200000D03*
X134150000Y-77200000D03*
X135000000Y-77200000D03*
X135850000Y-77200000D03*
X136700000Y-77200000D03*
X137550000Y-77200000D03*
D28*
X138600000Y-76150000D03*
X138600000Y-75300000D03*
X138600000Y-74450000D03*
X138600000Y-73600000D03*
X138600000Y-72750000D03*
X138600000Y-71900000D03*
X138600000Y-71050000D03*
X138600000Y-70200000D03*
X138600000Y-69350000D03*
X138600000Y-68500000D03*
X138600000Y-67650000D03*
X138600000Y-66800000D03*
X138600000Y-65950000D03*
X138600000Y-65100000D03*
X138600000Y-64250000D03*
D29*
X131600000Y-71850000D03*
D30*
X133250000Y-68550000D03*
D29*
X131600000Y-70200000D03*
X133250000Y-71850000D03*
X129950000Y-71850000D03*
X129950000Y-70200000D03*
X133250000Y-70200000D03*
X131600000Y-68550000D03*
X129950000Y-68550000D03*
D31*
X138600000Y-63200000D03*
X124600000Y-63200000D03*
X124600000Y-77200000D03*
X138600000Y-77200000D03*
D32*
X114800000Y-68200000D03*
X117600000Y-68200000D03*
D33*
X132825000Y-61200000D03*
X134375000Y-61200000D03*
D13*
X62600000Y-73825000D03*
X62600000Y-72175000D03*
D20*
X119000000Y-61975000D03*
X119000000Y-63625000D03*
D33*
X114625000Y-65600000D03*
X116175000Y-65600000D03*
D13*
X122400000Y-74425000D03*
X122400000Y-72775000D03*
D19*
X102600000Y-76000000D03*
X105900000Y-76000000D03*
D20*
X147668000Y-64975000D03*
X147668000Y-66625000D03*
D13*
X120600000Y-63625000D03*
X120600000Y-61975000D03*
D34*
X80400000Y-76887500D03*
X80400000Y-70112500D03*
D20*
X65800000Y-72175000D03*
X65800000Y-73825000D03*
D35*
X111425000Y-73200000D03*
X109775000Y-73200000D03*
M02*
