M48
; DRILL file {KiCad (6.0.1)} date Mon Jan  9 15:04:17 2023
; FORMAT={-:-/ absolute / inch / decimal}
; #@! TF.CreationDate,2023-01-09T15:04:17+01:00
; #@! TF.GenerationSoftware,Kicad,Pcbnew,(6.0.1)
; #@! TF.FileFunction,Plated,1,2,PTH
FMAT,2
INCH
; #@! TA.AperFunction,Plated,PTH,ViaDrill
T1C0.0118
; #@! TA.AperFunction,Plated,PTH,ComponentDrill
T2C0.0236
; #@! TA.AperFunction,Plated,PTH,ComponentDrill
T3C0.0295
; #@! TA.AperFunction,Plated,PTH,ComponentDrill
T4C0.0315
; #@! TA.AperFunction,Plated,PTH,ComponentDrill
T5C0.0433
%
G90
G05
T1
X2.4409Y-3.0433
X2.4449Y-2.9803
X2.5256Y-3.0433
X2.5276Y-2.9803
X2.6102Y-2.9803
X2.6102Y-3.0433
X2.6535Y-2.8425
X2.7717Y-2.6378
X2.7795Y-2.8504
X2.8819Y-2.8504
X2.9055Y-2.5659
X2.9055Y-2.5994
X2.9055Y-2.6378
X3.0079Y-2.9764
X4.0866Y-2.5118
X4.0866Y-2.5906
X4.1417Y-2.5118
X4.1417Y-2.5906
X4.3189Y-3.0315
X4.3228Y-2.9685
X4.3937Y-2.6063
X4.3957Y-2.5433
X4.4035Y-3.0315
X4.4055Y-2.9685
X4.4626Y-2.5433
X4.4626Y-2.6063
X4.4882Y-2.9685
X4.4882Y-3.0315
X4.5551Y-3.0315
X4.5591Y-2.9685
X4.5906Y-2.8504
X4.5925Y-2.7874
X4.6398Y-3.0315
X4.6417Y-2.9685
X4.6594Y-2.7874
X4.6594Y-2.8504
X4.7244Y-2.9685
X4.7244Y-3.0315
X4.7579Y-2.7717
X4.7598Y-2.7087
X4.8268Y-2.7087
X4.8268Y-2.7717
X4.8504Y-2.9921
X4.9134Y-2.4016
X4.9488Y-2.7914
X4.9685Y-2.9921
X4.9725Y-2.7677
X4.9961Y-2.4016
X5.063Y-2.5354
X5.0787Y-2.4016
X5.0984Y-2.622
X5.0984Y-2.9606
X5.1024Y-2.5591
X5.1024Y-2.8976
X5.1831Y-2.622
X5.1831Y-2.9606
X5.185Y-2.5591
X5.185Y-2.8976
X5.2047Y-2.5276
X5.2205Y-3.0128
X5.252Y-3.0128
X5.2677Y-2.5591
X5.2677Y-2.622
X5.2677Y-2.8976
X5.2677Y-2.9606
X5.2835Y-2.5276
X5.7165Y-2.5689
X5.7165Y-2.5984
X5.7165Y-2.6299
X5.7205Y-2.4055
X5.7205Y-2.4882
X5.7835Y-2.4075
X5.7835Y-2.4921
X5.7913Y-2.9882
X5.7953Y-2.7913
X5.7953Y-2.9252
X5.7992Y-2.7283
X5.876Y-2.9882
X5.878Y-2.9252
X5.8799Y-2.7913
X5.8819Y-2.7283
X6.0748Y-2.8661
X6.0787Y-2.8031
X6.1594Y-2.8661
X6.1614Y-2.8031
T3
X6.0866Y-3.5409
X6.1366Y-3.5409
X6.1866Y-3.5409
T4
X3.4606Y-2.8228
X3.4606Y-2.9606
X3.47Y-2.4723
X3.47Y-2.6101
X3.815Y-2.4724
X3.815Y-2.6102
X3.815Y-2.8228
X3.815Y-2.9606
T5
X6.0364Y-2.722
X6.0364Y-2.978
X6.2136Y-2.722
X6.2136Y-2.978
T2
G00X2.6649Y-2.5005
M15
G01X2.6649Y-2.4769
M16
G05
G00X2.6649Y-2.6749
M15
G01X2.6649Y-2.6316
M16
G05
G00X3.0051Y-2.5005
M15
G01X3.0051Y-2.4769
M16
G05
G00X3.0051Y-2.6749
M15
G01X3.0051Y-2.6316
M16
G05
T0
M30
